# xmcd
#
# Track frame offsets:
#	150
#	14037
#	27475
#	45712
#	56700
#	75275
#	89962
#	109300
#	124900
#	135175
#	147937
#	158212
#	169850
#
# Disc length: 2548 seconds
#
# Revision: 2
# Processed by: cddbd v1.5.2PL0 Copyright (c) Steve Scherf et al.
# Submitted via: audiograbber 1.83.01
#
DISCID=b509f20d
DTITLE=Tumbleweed - A Tribute To Country Music
DYEAR=1900
DGENRE=Country
TTITLE0=Buckaroo/Love's Gonna Live Here Again
TTITLE1=Too Much
TTITLE2=Wait A Minute
TTITLE3=Folsom Prison Blues
TTITLE4=To Know Him Is To Love Him
TTITLE5=Achy Breaky Heart
TTITLE6=That Was A Close One
TTITLE7=Dueling Banjo
TTITLE8=Count On Me
TTITLE9=Love Reunited
TTITLE10=Peace For The World
TTITLE11=Love's Gotta Hold On You
TTITLE12=Dixieland Delight
EXTD=
EXTT0=
EXTT1=
EXTT2=
EXTT3=
EXTT4=
EXTT5=
EXTT6=
EXTT7=
EXTT8=
EXTT9=
EXTT10=
EXTT11=
EXTT12=
PLAYORDER=
